<svg width="150" height="176" viewBox="0 0 150 176" fill="none" xmlns="http://www.w3.org/2000/svg">
<path d="M141.926 107.2C141.926 156.434 104.266 168.169 72.2847 168.169C40.3034 168.169 8 143.796 8 115.619C8 83.4763 21.7753 56.8006 60.2951 46.9973C92.6925 38.7522 138.865 61.793 141.926 107.2Z" fill="#F9AF5F" stroke="#FF9328" stroke-width="15"/>
<path d="M119.918 22.251C119.97 22.8148 120.02 23.3207 120.058 23.7626C120.197 25.3715 120.225 26.4507 120.031 27.7617C119.614 30.5767 118.034 35.3499 112.02 46.3748C99.9924 59.7564 86.0802 56.2922 81.0141 51.9158C79.3386 50.4684 78.83 49.6684 78.688 49.3695C78.6664 49.3241 78.5971 49.3107 78.6969 48.8378C78.8522 48.1022 79.3566 46.766 80.7555 44.4411C81.9549 42.4477 83.5998 40.0667 85.7757 37.0822L86.7409 35.7647C87.4378 34.8191 89.5423 32.9873 93.3469 30.7901C96.9298 28.721 101.333 26.7197 105.812 25.1653C110.331 23.5972 114.614 22.5935 117.992 22.3225C118.747 22.2619 119.385 22.2442 119.918 22.251Z" fill="#B8D06E" stroke="#99AC57" stroke-width="15"/>
<ellipse cx="65.397" cy="98.1519" rx="3.31627" ry="5.86725" fill="#332B21"/>
<ellipse cx="87.565" cy="97.9411" rx="3.54586" ry="6.16671" fill="#332B21"/>
<path d="M106.514 112.533C106.774 114.99 94.0277 115.007 78.4765 116.656C62.9252 118.305 50.3852 120.272 50.1979 118.505C49.8361 115.093 62.4428 113.756 77.994 112.107C93.5453 110.458 106.225 109.811 106.514 112.533Z" fill="#332B21"/>
</svg>
